<?xml version="1.0" encoding="iso-8859-1"?>
<!-- Generator: Adobe Illustrator 19.0.0, SVG Export Plug-In . SVG Version: 6.00 Build 0)  -->
<svg version="1.1" id="Capa_1" xmlns="http://www.w3.org/2000/svg" xmlns:xlink="http://www.w3.org/1999/xlink" x="0px" y="0px"
	 viewBox="0 0 512.002 512.002" style="enable-background:new 0 0 512.002 512.002;" xml:space="preserve">
<path style="fill:#6E87F5;" d="M119.327,195.002h82.311l0,0c0-24.3-19.698-43.998-43.998-43.998h-38.314
	c-15.098,0-25.71,14.861-20.807,29.141l0,0C101.571,189.034,109.931,195.002,119.327,195.002z"/>
<polygon style="fill:#F5B955;" points="493.64,147.058 357.648,147.058 387.896,211.055 468.426,211.055 "/>
<circle style="fill:#D7D7E6;" cx="240.737" cy="342.991" r="30.752"/>
<g>
	<circle style="fill:#C8F5FF;" cx="109.995" cy="342.111" r="99.994"/>
	<circle style="fill:#C8F5FF;" cx="401.978" cy="342.111" r="99.994"/>
</g>
<path style="fill:#A5DC69;" d="M440.871,85.665c21.207-21.226,60.57-16.129,60.891-16.096l0.006-0.006l-0.005,0.005l0.008-0.008
	l-0.006,0.006c0.014,0.167,3.407,38.141-17.836,59.414c-21.242,21.26-59.812,17.05-59.978,17.019l-0.011,0.011
	C423.941,146.007,419.576,106.975,440.871,85.665z"/>
<path style="fill:#46C373;" d="M374.892,132.479c-17.025-17.01-12.937-48.583-12.91-48.84l-0.005-0.005l0.004,0.004l-0.007-0.007
	l0.004,0.005c0.134-0.011,30.593-2.733,47.655,14.306c17.052,17.038,13.675,47.975,13.651,48.108l0.009,0.009
	C423.293,146.059,391.985,149.56,374.892,132.479z"/>
<path d="M401.978,233c-15.114,0-29.525,3.066-42.647,8.606l-57.814-108.6h10.901c11.222,0,21.414-5.718,27.263-15.295
	c5.849-9.577,6.28-21.256,1.155-31.238c-5.496-10.705-16.385-17.355-28.418-17.355h-23.935c-5.522,0-9.999,4.478-9.999,9.999
	s4.478,9.999,9.999,9.999h23.936c4.5,0,8.572,2.486,10.626,6.49c1.946,3.789,1.788,8.047-0.432,11.682
	c-2.22,3.635-5.936,5.72-10.194,5.72h-27.553c-3.512,0-6.766,1.842-8.573,4.852c-1.808,3.011-1.904,6.748-0.254,9.847l36.712,68.962
	L256.55,305.437c-4.864-2.055-10.206-3.193-15.81-3.193c-2.903,0-5.735,0.311-8.468,0.891l-57.365-98.131h26.729
	c5.522,0,9.999-4.478,9.999-9.999c0-29.773-24.224-53.997-53.997-53.997h-38.314c-10.312,0-20.048,5.012-26.041,13.404
	c-5.994,8.394-7.572,19.228-4.224,28.983c4.437,12.924,16.599,21.608,30.264,21.608h32.417l16.838,28.804l-7.59,11.755
	C145.739,237.546,128.388,233,109.994,233C49.343,233,0,282.344,0,342.994s49.343,109.994,109.994,109.994
	c49.599,0,91.628-33.001,105.301-78.197c6.979,5.596,15.825,8.954,25.446,8.954c0.241,0,0.478-0.014,0.717-0.018l4.879,17.936
	c1.185,4.354,5.138,7.375,9.648,7.375h19.245c5.522,0,9.999-4.478,9.999-9.999s-4.478-9.999-9.999-9.999h-11.602l-2.875-10.567
	c12.367-7.005,20.737-20.278,20.737-35.477c0-9.527-3.295-18.295-8.794-25.243l51.478-99.626l17.521,32.912
	c-29.918,19.679-49.712,53.547-49.712,91.957c0,60.651,49.343,109.994,109.994,109.994s109.994-49.343,109.994-109.994
	S462.629,233,401.978,233z M107.978,176.9c-1.274-3.713-0.697-7.675,1.584-10.869c2.281-3.194,5.841-5.026,9.765-5.026h38.314
	c15.269,0,28.218,10.116,32.498,23.999h-70.812C114.202,185.003,109.642,181.746,107.978,176.9z M180.277,399.134l-46.141-46.141
	h65.295C197.507,370.325,190.641,386.186,180.277,399.134z M20.559,352.994h65.295l-46.141,46.141
	C29.348,386.186,22.483,370.325,20.559,352.994z M39.713,286.853l46.141,46.141H20.559
	C22.483,315.663,29.348,299.802,39.713,286.853z M199.431,332.995h-71.079l38.53-59.682
	C184.644,287.841,196.767,309.01,199.431,332.995z M99.995,318.852l-46.141-46.141c12.948-10.364,28.809-17.229,46.141-19.154
	V318.852z M99.995,367.135v65.295c-17.332-1.925-33.192-8.79-46.141-19.154L99.995,367.135z M119.994,367.135l46.141,46.141
	c-12.948,10.364-28.809,17.229-46.141,19.154V367.135z M179.895,253.157l6.047,10.343c-2.602-2.487-5.325-4.848-8.159-7.073
	L179.895,253.157z M119.994,309.068v-55.511c10.708,1.189,20.855,4.265,30.101,8.885L119.994,309.068z M255.157,357.89
	l-4.767-17.521c-1.45-5.328-6.939-8.479-12.273-7.024c-5.329,1.449-8.474,6.945-7.024,12.273l4.767,17.524
	c-9.091-2.205-15.871-10.39-15.871-20.149c0-11.442,9.31-20.753,20.753-20.753c11.442,0,20.752,9.31,20.752,20.753
	C261.493,348.837,259.056,354.114,255.157,357.89z M472.26,399.134l-46.141-46.141h65.295
	C489.49,370.325,482.625,386.186,472.26,399.134z M411.978,253.557c17.332,1.925,33.192,8.79,46.141,19.154l-46.141,46.141V253.557z
	 M391.979,432.43c-17.332-1.925-33.192-8.79-46.141-19.154l46.141-46.141V432.43z M411.978,367.135l46.141,46.141
	c-12.948,10.364-28.809,17.229-46.141,19.154V367.135z M426.12,332.995l46.141-46.141c10.364,12.948,17.229,28.809,19.154,46.141
	H426.12z M391.979,253.557v49.373l-23.202-43.584C376.091,256.434,383.875,254.457,391.979,253.557z M351.14,268.775l34.187,64.218
	h-17.68c-5.522,0-9.999,4.478-9.999,9.999s4.478,9.999,9.999,9.999h10.189l-46.141,46.141
	c-12.327-15.402-19.712-34.923-19.712-56.14C311.983,312.222,327.511,285.011,351.14,268.775z"/>
<path d="M247.657,89.117c2.63,0,5.21-1.069,7.07-2.93c1.859-1.86,2.93-4.439,2.93-7.07c0-2.63-1.07-5.21-2.93-7.069
	c-1.86-1.86-4.44-2.931-7.07-2.931c-2.63,0-5.21,1.07-7.07,2.931c-1.859,1.859-2.93,4.43-2.93,7.069c0,2.631,1.07,5.21,2.93,7.07
	C242.447,88.049,245.027,89.117,247.657,89.117z"/>
<path d="M336.312,352.994c2.64,0,5.21-1.07,7.069-2.931c1.86-1.859,2.931-4.439,2.931-7.069s-1.07-5.21-2.931-7.07
	c-1.859-1.86-4.43-2.93-7.069-2.93c-2.63,0-5.21,1.069-7.07,2.93c-1.86,1.861-2.93,4.44-2.93,7.07s1.069,5.21,2.93,7.069
	C331.102,351.923,333.682,352.994,336.312,352.994z"/>
<polygon points="433.797,78.598 433.798,78.597 433.798,78.597 "/>
<path d="M378.856,215.328c1.652,3.496,5.174,5.727,9.04,5.727h80.53c4.108,0,7.798-2.513,9.303-6.334l25.214-63.996
	c1.213-3.079,0.824-6.559-1.038-9.293c-1.861-2.735-4.957-4.372-8.266-4.372h-3.692c0.354-0.336,0.71-0.668,1.058-1.016
	c23.266-23.298,21.193-61.422,20.751-67.001c-0.124-2.384-1.097-4.73-2.917-6.552c-1.749-1.748-3.984-2.714-6.271-2.896
	c-6.002-0.677-45.635-4.155-68.771,19.002c-5.341,5.344-9.301,11.543-12.228,17.988c-1.449-1.993-3.063-3.912-4.871-5.719
	c-19.313-19.286-50.771-17.577-55.292-17.217c-2.366,0.134-4.694,1.105-6.503,2.913c-1.744,1.745-2.709,3.974-2.895,6.255
	c-0.554,4.935-3.103,34.902,13.522,54.242h-7.885c-3.427,0-6.614,1.754-8.448,4.649c-1.833,2.895-2.057,6.526-0.593,9.623
	L378.856,215.328z M461.619,201.055H394.23l-20.796-43.997h105.519L461.619,201.055z M447.945,92.732
	C447.945,92.732,447.946,92.732,447.945,92.732c11.754-11.765,31.226-13.726,42.902-13.726c0.358,0,0.71,0.002,1.054,0.006
	c-0.396,11.195-2.938,30.774-15.044,42.897c-12.164,12.175-32.018,14.306-43.27,14.443
	C433.711,124.967,435.812,104.874,447.945,92.732z M402.565,105.016c8.12,8.112,10.548,21.665,10.967,31.266
	c-9.028-0.335-23.036-2.346-31.572-10.875c0-0.001,0-0.001,0-0.001c-8.465-8.457-10.22-22.636-10.382-31.785
	C380.429,94.157,394.001,96.464,402.565,105.016z"/>
<g>
</g>
<g>
</g>
<g>
</g>
<g>
</g>
<g>
</g>
<g>
</g>
<g>
</g>
<g>
</g>
<g>
</g>
<g>
</g>
<g>
</g>
<g>
</g>
<g>
</g>
<g>
</g>
<g>
</g>
</svg>
