<svg id="Capa_1" enable-background="new 0 0 512 512" height="512" viewBox="0 0 512 512" width="512" xmlns="http://www.w3.org/2000/svg"><g><path d="m256 512c-3.409 0-6.818-1.157-9.599-3.474l-47.485-39.541-60.896 10.529c-7.142 1.231-14.145-2.812-16.639-9.617l-21.271-58.015-58.012-21.271c-6.805-2.495-10.852-9.498-9.617-16.64l10.532-60.892-39.539-47.48c-4.631-5.561-4.631-13.636 0-19.197l39.542-47.485-10.53-60.896c-1.235-7.142 2.813-14.145 9.617-16.639l58.015-21.271 21.27-58.013c2.496-6.805 9.501-10.856 16.64-9.617l60.892 10.532 47.482-39.54c5.561-4.631 13.636-4.633 19.197 0l47.485 39.541 60.896-10.529c7.141-1.235 14.144 2.812 16.639 9.617l21.271 58.015 58.012 21.271c6.805 2.495 10.852 9.498 9.617 16.64l-10.532 60.892 39.541 47.482c4.631 5.561 4.631 13.636 0 19.197l-39.542 47.485 10.53 60.896c1.235 7.142-2.813 14.145-9.617 16.639l-58.015 21.271-21.27 58.013c-2.495 6.805-9.498 10.861-16.64 9.617l-60.892-10.532-47.482 39.54c-2.782 2.314-6.191 3.472-9.6 3.472z" fill="#ffb454"/><path d="m508.526 246.402-39.541-47.482 10.532-60.892c1.235-7.142-2.812-14.145-9.617-16.64l-58.012-21.271-21.271-58.015c-2.495-6.805-9.498-10.853-16.639-9.617l-60.896 10.529-47.483-39.54c-2.781-2.317-6.19-3.474-9.599-3.474v512c3.409 0 6.818-1.158 9.599-3.474l47.482-39.54 60.892 10.532c7.142 1.244 14.145-2.812 16.64-9.617l21.27-58.013 58.015-21.271c6.804-2.494 10.852-9.497 9.617-16.639l-10.53-60.896 39.542-47.485c4.631-5.56 4.631-13.635-.001-19.195z" fill="#ff8659"/><path d="m256 426c-93.738 0-170-76.262-170-170s76.262-170 170-170 170 76.262 170 170-76.262 170-170 170z" fill="#fff16b"/><path d="m256 86v340c93.738 0 170-76.262 170-170s-76.262-170-170-170z" fill="#ffb454"/><path d="m281 251h-50c-8.284 0-15-6.716-15-15s6.716-15 15-15h50c8.284 0 15 6.716 15 15s-6.716 15-15 15z" fill="#0a617d"/><path d="m256 375.966c-18.327 0-36.654-6.976-50.606-20.928-5.858-5.857-5.858-15.355 0-21.213 5.858-5.857 15.356-5.857 21.213 0 16.208 16.207 42.579 16.207 58.787 0 5.858-5.858 15.355-5.858 21.213 0 5.857 5.857 5.857 15.355 0 21.213-13.953 13.952-32.28 20.928-50.607 20.928z" fill="#ff6326"/><path d="m145.995 251.004c-1.854 0-3.739-.346-5.566-1.077l-40.568-16.228c-7.692-3.076-11.433-11.806-8.356-19.498 3.077-7.691 11.805-11.436 19.498-8.355l40.568 16.228c7.692 3.076 11.433 11.806 8.356 19.498-2.346 5.864-7.979 9.432-13.932 9.432z" fill="#0a617d"/><g><g><path d="m281 221h-25v30h25c8.284 0 15-6.716 15-15s-6.716-15-15-15z" fill="#05303d"/></g><g><path d="m306.607 333.825c-5.858-5.858-15.355-5.858-21.213 0-8.104 8.104-18.749 12.155-29.394 12.155v29.985c18.327 0 36.654-6.976 50.606-20.928 5.858-5.857 5.858-15.355.001-21.212z" fill="#ff3838"/></g></g><path d="m366.005 251.004c-5.954 0-11.586-3.568-13.932-9.433-3.077-7.692.665-16.422 8.356-19.498l40.568-16.228c7.691-3.08 16.421.665 19.498 8.355 3.077 7.692-.665 16.422-8.356 19.498l-40.568 16.228c-1.827.732-3.712 1.078-5.566 1.078z" fill="#05303d"/><path d="m191 301h-5c-30.327 0-55-24.673-55-55v-29c0-8.822 7.178-16 16-16h83c8.822 0 16 7.178 16 16v29c0 30.327-24.673 55-55 55z" fill="#0a617d"/><path d="m161 231v15c0 13.785 11.215 25 25 25h5c13.785 0 25-11.215 25-25v-15z" fill="#bceaf9"/><path d="m326 301h-5c-30.327 0-55-24.673-55-55v-29c0-8.822 7.178-16 16-16h83c8.822 0 16 7.178 16 16v29c0 30.327-24.673 55-55 55z" fill="#05303d"/><path d="m296 231v15c0 13.785 11.215 25 25 25h5c13.785 0 25-11.215 25-25v-15z" fill="#acceff"/></g></svg>